<svg data-logo="logo" xmlns="http://www.w3.org/2000/svg" viewBox="0 0 353.0899963378906 41.109375">
        <g style="opacity: 1;" id="logogram" transform="translate(0, 0.5546875)
    rotate(0 31.5 20)"><path d="M63 29.3506L38.117 5.08907C37.4008 4.39081 36.4402 4 35.44 4C31.9983 4 30.2991 8.18294 32.7659 10.583L59.4712 36.5666C60.7577 37.8183 59.8715 40 58.0765 40H9.65685C8.59599 40 7.57857 39.5786 6.82843 38.8284L1.17157 33.1716C0.421426 32.4214 0 31.404 0 30.3431V10.6484L24.883 34.9109C25.5992 35.6092 26.5598 36 27.5601 36C31.0017 36 32.7009 31.8171 30.2342 29.417L3.52882 3.43345C2.24227 2.18166 3.12849 0 4.92354 0L53.3431 0C54.404 0 55.4214 0.421427 56.1716 1.17157L61.8284 6.82843C62.5786 7.57857 63 8.59599 63 9.65685V29.3506Z" fill="#00AFEF"></path></g>
        <g style="opacity: 1;" id="logotype" transform="translate(69, 0.5)"><path fill="#ffffff" d="M21.96 24.56L21.96 8.12L27.07 8.12L27.07 24.56Q27.07 27.43 25.85 29.39Q24.63 31.36 22.48 32.35Q20.34 33.34 17.55 33.34L17.55 33.34Q14.77 33.34 12.61 32.35Q10.44 31.36 9.22 29.39Q8.00 27.43 8.00 24.56L8.00 24.56L8.00 8.12L13.13 8.12L13.13 24.56Q13.13 26.23 13.66 27.29Q14.19 28.35 15.19 28.85Q16.19 29.34 17.55 29.34L17.55 29.34Q18.95 29.34 19.94 28.85Q20.92 28.35 21.44 27.29Q21.96 26.23 21.96 24.56L21.96 24.56ZM41.82 20.76L40.33 22.08L33.94 22.08L33.91 18.56L39.27 18.56Q40.69 18.56 41.60 18.19Q42.50 17.82 42.96 17.11Q43.41 16.41 43.41 15.38L43.41 15.38Q43.41 14.22 42.97 13.50Q42.54 12.78 41.62 12.46Q40.71 12.13 39.27 12.13L39.27 12.13L35.72 12.13L35.72 33L30.59 33L30.59 8.12L39.27 8.12Q41.45 8.12 43.16 8.53Q44.88 8.94 46.08 9.77Q47.27 10.61 47.90 11.89Q48.54 13.16 48.54 14.90L48.54 14.90Q48.54 16.44 47.85 17.74Q47.15 19.04 45.67 19.86Q44.20 20.68 41.82 20.76L41.82 20.76ZM40.11 33L40.11 33L32.54 33L34.54 29.00L40.11 29.00Q41.46 29.00 42.32 28.57Q43.17 28.13 43.58 27.38Q43.99 26.63 43.99 25.65L43.99 25.65Q43.99 24.56 43.62 23.75Q43.26 22.95 42.45 22.52Q41.65 22.08 40.33 22.08L40.33 22.08L35.40 22.08L35.43 18.56L41.58 18.56L42.76 19.94Q45.03 19.91 46.43 20.74Q47.82 21.57 48.46 22.88Q49.10 24.20 49.10 25.70L49.10 25.70Q49.10 28.10 48.06 29.73Q47.02 31.36 45.01 32.18Q43.00 33 40.11 33ZM52.23 8.12L57.36 8.12L57.36 33L52.23 33L52.23 8.12ZM55.95 18.75L67.27 18.75L67.27 22.75L55.95 22.75L55.95 18.75ZM55.95 8.12L68.46 8.12L68.46 12.13L55.95 12.13L55.95 8.12ZM81.97 20.76L80.48 22.08L74.09 22.08L74.05 18.56L79.42 18.56Q80.84 18.56 81.74 18.19Q82.65 17.82 83.10 17.11Q83.56 16.41 83.56 15.38L83.56 15.38Q83.56 14.22 83.12 13.50Q82.68 12.78 81.77 12.46Q80.86 12.13 79.42 12.13L79.42 12.13L75.87 12.13L75.87 33L70.74 33L70.74 8.12L79.42 8.12Q81.59 8.12 83.31 8.53Q85.03 8.94 86.22 9.77Q87.42 10.61 88.05 11.89Q88.68 13.16 88.68 14.90L88.68 14.90Q88.68 16.44 87.99 17.74Q87.30 19.04 85.82 19.86Q84.34 20.68 81.97 20.76L81.97 20.76ZM80.26 33L80.26 33L72.69 33L74.69 29.00L80.26 29.00Q81.61 29.00 82.46 28.57Q83.32 28.13 83.73 27.38Q84.14 26.63 84.14 25.65L84.14 25.65Q84.14 24.56 83.77 23.75Q83.40 22.95 82.60 22.52Q81.80 22.08 80.48 22.08L80.48 22.08L75.54 22.08L75.57 18.56L81.73 18.56L82.91 19.94Q85.18 19.91 86.57 20.74Q87.96 21.57 88.61 22.88Q89.25 24.20 89.25 25.70L89.25 25.70Q89.25 28.10 88.20 29.73Q87.16 31.36 85.15 32.18Q83.15 33 80.26 33ZM105.47 8.12L110.58 8.12L110.58 33L105.47 33L105.47 8.12ZM97.93 8.12L118.23 8.12L118.23 12.13L97.93 12.13L97.93 8.12ZM123.60 14.51L123.89 18.54L123.89 33L118.97 33L118.97 14.51L123.60 14.51ZM129.46 14.39L129.46 14.39L129.38 18.95Q129.02 18.90 128.51 18.86Q128.01 18.82 127.60 18.82L127.60 18.82Q126.56 18.82 125.80 19.08Q125.03 19.35 124.53 19.86Q124.03 20.37 123.78 21.11Q123.53 21.84 123.50 22.78L123.50 22.78L122.51 22.47Q122.51 20.68 122.86 19.17Q123.22 17.65 123.92 16.53Q124.61 15.40 125.62 14.78Q126.62 14.17 127.92 14.17L127.92 14.17Q128.33 14.17 128.76 14.23Q129.19 14.29 129.46 14.39ZM140.50 28.83L140.50 28.83L140.50 20.59Q140.50 19.70 140.21 19.06Q139.92 18.42 139.31 18.06Q138.71 17.70 137.75 17.70L137.75 17.70Q136.93 17.70 136.33 17.99Q135.73 18.27 135.41 18.79Q135.08 19.31 135.08 20.01L135.08 20.01L130.16 20.01Q130.16 18.83 130.71 17.77Q131.26 16.71 132.30 15.90Q133.34 15.09 134.79 14.63Q136.23 14.17 138.02 14.17L138.02 14.17Q140.18 14.17 141.85 14.88Q143.53 15.60 144.49 17.04Q145.46 18.47 145.46 20.63L145.46 20.63L145.46 28.54Q145.46 30.06 145.65 31.03Q145.83 31.99 146.19 32.71L146.19 32.71L146.19 33L141.22 33Q140.86 32.25 140.68 31.11Q140.50 29.98 140.50 28.83ZM138.30 21.74L141.15 21.74L141.19 24.52L138.43 24.52Q137.46 24.52 136.74 24.75Q136.02 24.97 135.56 25.37Q135.10 25.77 134.89 26.30Q134.67 26.83 134.67 27.46L134.67 27.46Q134.67 28.10 134.96 28.60Q135.26 29.10 135.80 29.39Q136.35 29.67 137.08 29.67L137.08 29.67Q138.19 29.67 139.02 29.22Q139.84 28.78 140.29 28.13Q140.74 27.48 140.76 26.90L140.76 26.90L142.06 28.98Q141.78 29.68 141.31 30.44Q140.84 31.19 140.13 31.85Q139.41 32.50 138.40 32.92Q137.39 33.34 136.01 33.34L136.01 33.34Q134.25 33.34 132.82 32.63Q131.39 31.92 130.56 30.67Q129.74 29.41 129.74 27.80L129.74 27.80Q129.74 26.35 130.28 25.22Q130.83 24.10 131.90 23.32Q132.97 22.54 134.57 22.14Q136.18 21.74 138.30 21.74L138.30 21.74ZM159.97 33L159.47 28.97L159.47 6.75L164.43 6.75L164.43 33L159.97 33ZM147.78 23.98L147.78 23.98L147.78 23.62Q147.78 21.50 148.26 19.76Q148.74 18.03 149.66 16.78Q150.59 15.53 151.94 14.85Q153.29 14.17 155.01 14.17L155.01 14.17Q156.64 14.17 157.86 14.85Q159.08 15.53 159.94 16.79Q160.81 18.05 161.34 19.75Q161.86 21.45 162.10 23.46L162.10 23.46L162.10 24.25Q161.86 26.18 161.34 27.84Q160.81 29.50 159.94 30.74Q159.08 31.97 157.85 32.66Q156.62 33.34 154.98 33.34L154.98 33.34Q153.25 33.34 151.91 32.64Q150.57 31.94 149.65 30.68Q148.74 29.41 148.26 27.70Q147.78 25.99 147.78 23.98ZM152.70 23.62L152.70 23.62L152.70 23.98Q152.70 25.12 152.88 26.11Q153.06 27.10 153.48 27.86Q153.90 28.63 154.58 29.04Q155.25 29.46 156.23 29.46L156.23 29.46Q157.49 29.46 158.31 28.89Q159.13 28.32 159.57 27.31Q160.00 26.30 160.07 24.98L160.07 24.98L160.07 22.75Q160.02 21.67 159.77 20.81Q159.52 19.94 159.05 19.33Q158.58 18.71 157.89 18.37Q157.20 18.03 156.26 18.03L156.26 18.03Q155.30 18.03 154.62 18.47Q153.94 18.90 153.52 19.65Q153.10 20.40 152.90 21.42Q152.70 22.44 152.70 23.62ZM176.07 33.34L176.07 33.34Q173.91 33.34 172.20 32.65Q170.50 31.96 169.31 30.73Q168.12 29.50 167.49 27.86Q166.86 26.23 166.86 24.39L166.86 24.39L166.86 23.70Q166.86 21.60 167.45 19.86Q168.05 18.11 169.17 16.83Q170.29 15.55 171.90 14.86Q173.50 14.17 175.52 14.17L175.52 14.17Q177.49 14.17 179.01 14.82Q180.53 15.47 181.56 16.66Q182.60 17.86 183.13 19.52Q183.66 21.19 183.66 23.22L183.66 23.22L183.66 25.28L168.96 25.28L168.96 21.99L178.82 21.99L178.82 21.62Q178.82 20.59 178.45 19.78Q178.08 18.97 177.35 18.49Q176.61 18.01 175.47 18.01L175.47 18.01Q174.49 18.01 173.79 18.44Q173.09 18.87 172.66 19.64Q172.22 20.40 172.01 21.44Q171.79 22.47 171.79 23.70L171.79 23.70L171.79 24.39Q171.79 25.50 172.11 26.44Q172.43 27.38 173.02 28.06Q173.61 28.74 174.45 29.12Q175.30 29.50 176.37 29.50L176.37 29.50Q177.71 29.50 178.86 28.98Q180.01 28.45 180.85 27.39L180.85 27.39L183.24 29.99Q182.66 30.83 181.66 31.60Q180.66 32.37 179.26 32.85Q177.86 33.34 176.07 33.34ZM203.98 19.99L213.79 19.99L213.79 29.86Q213.20 30.56 211.99 31.37Q210.78 32.18 208.86 32.76Q206.95 33.34 204.23 33.34L204.23 33.34Q201.82 33.34 199.84 32.55Q197.86 31.75 196.43 30.21Q195.00 28.68 194.24 26.45Q193.47 24.22 193.47 21.34L193.47 21.34L193.47 19.79Q193.47 16.92 194.21 14.68Q194.95 12.44 196.34 10.90Q197.72 9.36 199.64 8.56Q201.55 7.76 203.89 7.76L203.89 7.76Q207.14 7.76 209.22 8.81Q211.31 9.86 212.41 11.71Q213.51 13.57 213.77 15.96L213.77 15.96L208.80 15.96Q208.61 14.70 208.08 13.76Q207.55 12.82 206.57 12.29Q205.58 11.76 204.03 11.76L204.03 11.76Q202.75 11.76 201.75 12.28Q200.75 12.80 200.06 13.81Q199.38 14.82 199.02 16.30Q198.66 17.79 198.66 19.76L198.66 19.76L198.66 21.34Q198.66 23.29 199.04 24.79Q199.41 26.28 200.16 27.30Q200.90 28.32 201.99 28.83Q203.09 29.34 204.54 29.34L204.54 29.34Q205.75 29.34 206.57 29.14Q207.38 28.93 207.88 28.63Q208.39 28.33 208.66 28.06L208.66 28.06L208.66 23.65L203.98 23.65L203.98 19.99ZM221.55 14.51L221.84 18.54L221.84 33L216.91 33L216.91 14.51L221.55 14.51ZM227.41 14.39L227.41 14.39L227.32 18.95Q226.96 18.90 226.46 18.86Q225.95 18.82 225.54 18.82L225.54 18.82Q224.50 18.82 223.74 19.08Q222.98 19.35 222.48 19.86Q221.97 20.37 221.72 21.11Q221.48 21.84 221.44 22.78L221.44 22.78L220.45 22.47Q220.45 20.68 220.81 19.17Q221.17 17.65 221.86 16.53Q222.55 15.40 223.56 14.78Q224.57 14.17 225.87 14.17L225.87 14.17Q226.28 14.17 226.71 14.23Q227.13 14.29 227.41 14.39ZM227.72 23.94L227.72 23.94L227.72 23.58Q227.72 21.55 228.30 19.83Q228.88 18.11 229.99 16.85Q231.10 15.59 232.72 14.88Q234.35 14.17 236.45 14.17L236.45 14.17Q238.55 14.17 240.19 14.88Q241.83 15.59 242.95 16.85Q244.07 18.11 244.65 19.83Q245.23 21.55 245.23 23.58L245.23 23.58L245.23 23.94Q245.23 25.96 244.65 27.68Q244.07 29.39 242.95 30.67Q241.83 31.94 240.21 32.64Q238.58 33.34 236.48 33.34L236.48 33.34Q234.38 33.34 232.75 32.64Q231.12 31.94 230.00 30.67Q228.88 29.39 228.30 27.68Q227.72 25.96 227.72 23.94ZM232.64 23.58L232.64 23.58L232.64 23.94Q232.64 25.10 232.84 26.11Q233.05 27.12 233.50 27.88Q233.95 28.64 234.69 29.07Q235.42 29.50 236.48 29.50L236.48 29.50Q237.51 29.50 238.24 29.07Q238.98 28.64 239.42 27.88Q239.87 27.12 240.08 26.11Q240.29 25.10 240.29 23.94L240.29 23.94L240.29 23.58Q240.29 22.46 240.08 21.46Q239.87 20.46 239.41 19.68Q238.96 18.90 238.23 18.46Q237.49 18.01 236.45 18.01L236.45 18.01Q235.41 18.01 234.68 18.46Q233.95 18.90 233.50 19.68Q233.05 20.46 232.84 21.46Q232.64 22.46 232.64 23.58ZM258.79 33L258.49 28.57L258.49 14.51L263.42 14.51L263.42 33L258.79 33ZM259.04 24.78L259.04 24.78L260.49 24.75Q260.49 26.59 260.07 28.17Q259.64 29.75 258.79 30.91Q257.93 32.06 256.63 32.70Q255.33 33.34 253.57 33.34L253.57 33.34Q252.22 33.34 251.09 32.96Q249.95 32.57 249.14 31.74Q248.33 30.92 247.87 29.61Q247.42 28.30 247.42 26.45L247.42 26.45L247.42 14.51L252.34 14.51L252.34 26.49Q252.34 27.31 252.54 27.87Q252.74 28.44 253.09 28.80Q253.45 29.15 253.94 29.31Q254.43 29.46 255.03 29.46L255.03 29.46Q256.55 29.46 257.43 28.85Q258.31 28.23 258.67 27.16Q259.04 26.10 259.04 24.78ZM271.02 14.51L271.38 18.06L271.38 40.11L266.46 40.11L266.46 14.51L271.02 14.51ZM283.09 23.55L283.09 23.55L283.09 23.91Q283.09 25.92 282.62 27.65Q282.15 29.38 281.24 30.65Q280.34 31.92 278.99 32.63Q277.65 33.34 275.91 33.34L275.91 33.34Q274.22 33.34 272.97 32.66Q271.72 31.97 270.88 30.74Q270.03 29.50 269.52 27.86Q269.01 26.22 268.73 24.34L268.73 24.34L268.73 23.40Q269.01 21.38 269.52 19.70Q270.03 18.01 270.88 16.77Q271.72 15.53 272.96 14.85Q274.20 14.17 275.88 14.17L275.88 14.17Q277.64 14.17 278.98 14.83Q280.32 15.50 281.23 16.75Q282.15 18.00 282.62 19.72Q283.09 21.45 283.09 23.55ZM278.15 23.91L278.15 23.91L278.15 23.55Q278.15 22.37 277.95 21.37Q277.76 20.37 277.34 19.62Q276.92 18.87 276.24 18.45Q275.57 18.03 274.61 18.03L274.61 18.03Q273.60 18.03 272.89 18.35Q272.18 18.68 271.74 19.29Q271.30 19.91 271.07 20.76Q270.85 21.62 270.80 22.69L270.80 22.69L270.80 25.07Q270.89 26.33 271.28 27.33Q271.67 28.33 272.49 28.92Q273.31 29.50 274.65 29.50L274.65 29.50Q275.62 29.50 276.29 29.06Q276.95 28.63 277.37 27.86Q277.79 27.09 277.97 26.08Q278.15 25.07 278.15 23.91Z"></path></g>
        
      </svg>